HIERARCHY
ROOT Hips
{
	OFFSET 0.000000 0.000000 0.000000
	CHANNELS 6 Xposition Yposition Zposition Zrotation Yrotation Xrotation 
	JOINT LHipJoint
	{
		OFFSET 0.000000 0.000000 0.000000
		CHANNELS 3 Zrotation Yrotation Xrotation
		JOINT LeftUpLeg
		{
			OFFSET 1.363060 -1.794630 0.839290
			CHANNELS 3 Zrotation Yrotation Xrotation
			JOINT LeftLeg
			{
				OFFSET 2.448110 -6.726130 0.000000
				CHANNELS 3 Zrotation Yrotation Xrotation
				JOINT LeftFoot
				{
					OFFSET 2.562200 -7.039590 0.000000
					CHANNELS 3 Zrotation Yrotation Xrotation
					JOINT LeftToeBase
					{
						OFFSET 0.157640 -0.433110 2.322550
						CHANNELS 3 Zrotation Yrotation Xrotation
						End Site
						{
							OFFSET 0.000000 0.000000 0.000000
						}
					}
				}
			}
		}
	}
	JOINT RHipJoint
	{
		OFFSET 0.000000 0.000000 0.000000
		CHANNELS 3 Zrotation Yrotation Xrotation
		JOINT RightUpLeg
		{
			OFFSET -1.305520 -1.794630 0.839290
			CHANNELS 3 Zrotation Yrotation Xrotation
			JOINT RightLeg
			{
				OFFSET -2.542530 -6.985550 0.000000
				CHANNELS 3 Zrotation Yrotation Xrotation
				JOINT RightFoot
				{
					OFFSET -2.568260 -7.056230 0.000000
					CHANNELS 3 Zrotation Yrotation Xrotation
					JOINT RightToeBase
					{
						OFFSET -0.164730 -0.452590 2.363150
						CHANNELS 3 Zrotation Yrotation Xrotation
						End Site
						{
							OFFSET 0.000000 0.000000 0.000000
						}
					}
				}
			}
		}
	}
	JOINT LowerBack
	{
		OFFSET 0.000000 0.000000 0.000000
		CHANNELS 3 Zrotation Yrotation Xrotation
		JOINT Spine
		{
			OFFSET 0.028270 2.035590 -0.193380
			CHANNELS 3 Zrotation Yrotation Xrotation
			JOINT Spine1
			{
				OFFSET 0.056720 2.048850 -0.042750
				CHANNELS 3 Zrotation Yrotation Xrotation
				JOINT Neck
				{
					OFFSET 0.000000 0.000000 0.000000
					CHANNELS 3 Zrotation Yrotation Xrotation
					JOINT Neck1
					{
						OFFSET -0.054170 1.746240 0.172020
						CHANNELS 3 Zrotation Yrotation Xrotation
						JOINT Head
						{
							OFFSET 0.104070 1.761360 -0.123970
							CHANNELS 3 Zrotation Yrotation Xrotation
							End Site
							{
								OFFSET 0.000000 0.000000 0.000000
							}
						}
					}
				}
				JOINT LeftShoulder
				{
					OFFSET 0.000000 0.000000 0.000000
					CHANNELS 3 Zrotation Yrotation Xrotation
					JOINT LeftArm
					{
						OFFSET 3.362410 1.200890 -0.311210
						CHANNELS 3 Zrotation Yrotation Xrotation
						JOINT LeftForeArm
						{
							OFFSET 4.983000 -0.000000 -0.000000
							CHANNELS 3 Zrotation Yrotation Xrotation
							JOINT LeftHand
							{
								OFFSET 3.483560 -0.000000 -0.000000
								CHANNELS 3 Zrotation Yrotation Xrotation
								JOINT LeftFingerBase
								{
									OFFSET 0.000000 0.000000 0.000000
									CHANNELS 3 Zrotation Yrotation Xrotation
									JOINT LeftHandIndex1
									{
										OFFSET 0.715260 -0.000000 -0.000000
										CHANNELS 3 Zrotation Yrotation Xrotation
										End Site
										{
											OFFSET 0.000000 0.000000 0.000000
										}
									}
								}
								JOINT LThumb
								{
									OFFSET 0.000000 0.000000 0.000000
									CHANNELS 3 Zrotation Yrotation Xrotation
									End Site
									{
										OFFSET 0.000000 0.000000 0.000000
									}
								}
							}
						}
					}
				}
				JOINT RightShoulder
				{
					OFFSET 0.000000 0.000000 0.000000
					CHANNELS 3 Zrotation Yrotation Xrotation
					JOINT RightArm
					{
						OFFSET -3.136600 1.374050 -0.404650
						CHANNELS 3 Zrotation Yrotation Xrotation
						JOINT RightForeArm
						{
							OFFSET -5.241900 -0.000000 -0.000000
							CHANNELS 3 Zrotation Yrotation Xrotation
							JOINT RightHand
							{
								OFFSET -3.444170 -0.000000 -0.000000
								CHANNELS 3 Zrotation Yrotation Xrotation
								JOINT RightFingerBase
								{
									OFFSET 0.000000 0.000000 0.000000
									CHANNELS 3 Zrotation Yrotation Xrotation
									JOINT RightHandIndex1
									{
										OFFSET -0.622530 -0.000000 -0.000000
										CHANNELS 3 Zrotation Yrotation Xrotation
										End Site
										{
											OFFSET 0.000000 0.000000 0.000000
										}
									}
								}
								JOINT RThumb
								{
									OFFSET 0.000000 0.000000 0.000000
									CHANNELS 3 Zrotation Yrotation Xrotation
									End Site
									{
										OFFSET 0.000000 0.000000 0.000000
									}
								}
							}
						}
					}
				}
			}
		}
	}
}
MOTION
Frames: 6
Frame Time: 0.008333
-1.472558 16.366565 1.287354 -165.631645 -86.016404 -175.388452 -9.097397 0.340284 4.265789 -8.999686 -6.662167 -51.967998 -2.191546 0.927283 24.909710 0.325865 0.587778 -1.292830 0.370100 0.000000 -24.572799 9.895011 -2.189261 -1.114842 10.419774 -4.727189 -17.023004 1.422073 -2.366761 43.137216 -0.203784 2.349352 -11.769543 -0.024000 0.000001 -84.106600 -0.584595 0.031976 -3.000120 -1.120123 -0.107132 -3.649828 -7.129442 -0.231499 0.390338 11.204314 -6.364126 -9.054736 -3.879462 -0.282724 -0.454662 0.000000 0.000000 0.000000 -4.591142 11.851095 2.801791 -71.359876 9.322471 3.194178 -3.379069 -24.410468 -0.011081 -0.974053 9.245308 -0.073447 -0.067752 -0.017905 -0.000000 0.000000 0.000000 0.000000 0.000000 0.000000 0.000000 18.367490 -0.472308 0.780464 71.384032 13.686788 9.335949 2.182106 46.365124 0.007421 -1.006528 8.075704 -0.077035 0.067662 -0.252592 0.000000 0.000000 0.000000 0.000000 0.000000 0.000000 0.000000 
-1.609539 16.340639 1.295330 -176.223670 -85.980929 -164.240399 -9.272707 0.267859 4.275710 -9.553635 -7.044436 -52.841047 -2.164827 1.074213 26.445403 0.365882 0.701191 -1.828296 0.363400 0.000000 -23.757000 9.924273 -2.144267 -1.176764 9.702798 -4.850939 -19.866253 0.960763 -2.731813 47.708228 -0.183566 2.021963 -9.869760 -0.015700 0.000000 -85.431800 -1.403742 -0.126023 -2.969366 -1.258463 -0.203604 -3.652231 -7.097360 -0.337591 0.358293 11.310369 -6.403796 -9.140299 -3.862511 -0.279465 -0.487251 0.000000 0.000000 0.000000 -4.189518 11.448896 2.876620 -71.593511 9.034921 3.504959 -3.376227 -24.949924 -0.011160 -1.055132 9.261670 -0.080033 -0.068437 -0.015234 -0.000000 0.000000 0.000000 0.000000 0.000000 0.000000 0.000000 18.452191 -0.621786 0.868327 71.727232 13.377246 8.987669 2.190397 45.772572 0.007329 -0.973267 7.993863 -0.073757 0.066708 -0.250527 0.000000 0.000000 0.000000 0.000000 0.000000 0.000000 0.000000 
-1.742257 16.309956 1.301911 174.674560 -86.009672 -154.529514 -9.361547 0.132750 4.254637 -10.091925 -7.466435 -53.735863 -2.142811 1.190738 28.029042 0.396645 0.764889 -2.508143 0.346200 -0.000000 -22.853599 10.030390 -2.107536 -1.202856 9.071721 -4.878481 -22.859633 0.507423 -3.104101 52.250139 -0.213269 1.526550 -7.994508 -0.001400 -0.000000 -85.699000 -2.102008 -0.333925 -2.925365 -1.378521 -0.358510 -3.651016 -7.067880 -0.500085 0.316417 11.411087 -6.428237 -9.228027 -3.846108 -0.276205 -0.522202 0.000000 0.000000 0.000000 -3.756452 10.973068 2.968748 -71.823157 8.755730 3.870897 -3.369206 -25.569329 -0.011164 -1.145998 9.264300 -0.087416 -0.068903 -0.011994 -0.000000 0.000000 0.000000 0.000000 0.000000 0.000000 0.000000 18.528748 -0.777423 0.959157 72.077788 13.090924 8.642403 2.192102 45.200425 0.007202 -0.929579 7.910861 -0.069784 0.065281 -0.248622 0.000000 0.000000 0.000000 0.000000 0.000000 0.000000 0.000000 
-1.870814 16.274190 1.307439 167.622663 -86.022229 -146.820793 -9.343480 0.006412 4.212707 -10.585124 -7.880858 -54.684791 -2.127853 1.295982 29.662246 0.425193 0.787052 -3.339528 0.317400 0.000000 -21.899300 10.221429 -2.015018 -1.197688 8.544862 -4.775912 -25.946112 0.058288 -3.455653 56.712642 -0.286823 0.899702 -6.273644 0.003200 -0.000000 -84.991200 -2.645125 -0.547879 -2.866245 -1.476152 -0.531141 -3.648651 -7.046200 -0.678881 0.261654 11.506831 -6.428528 -9.317698 -3.830787 -0.272946 -0.559299 0.000000 0.000000 0.000000 -3.311194 10.453270 3.069438 -72.030605 8.495033 4.302485 -3.355214 -26.285380 -0.011069 -1.248317 9.247734 -0.095397 -0.069012 -0.008451 -0.000000 0.000000 0.000000 0.000000 0.000000 0.000000 0.000000 18.596522 -0.906037 1.059440 72.426192 12.830357 8.309687 2.190310 44.649014 0.007113 -0.863052 7.822068 -0.064212 0.063494 -0.247007 0.000000 0.000000 0.000000 0.000000 0.000000 0.000000 0.000000 
-1.995339 16.233214 1.312358 162.596324 -85.976238 -141.095042 -9.255164 -0.084779 4.159322 -11.027349 -8.261008 -55.711545 -2.118452 1.405524 31.343342 0.456415 0.775284 -4.314356 0.277000 -0.000001 -20.936900 10.450865 -1.843199 -1.169231 8.117845 -4.532167 -29.090447 -0.383042 -3.772824 61.051381 -0.392782 0.181816 -4.828981 -0.012900 -0.000000 -83.526000 -3.069663 -0.747296 -2.795678 -1.555877 -0.698649 -3.646834 -7.031314 -0.852184 0.194475 11.597814 -6.402291 -9.411014 -3.816284 -0.269597 -0.598961 0.000000 0.000000 0.000000 -2.872697 9.918702 3.173503 -72.196949 8.247489 4.815287 -3.334319 -27.100438 -0.010876 -1.363618 9.207551 -0.104276 -0.068792 -0.004724 -0.000000 0.000000 0.000000 0.000000 0.000000 0.000000 0.000000 18.655411 -0.993562 1.171444 72.764533 12.603433 8.002350 2.186758 44.111903 0.007099 -0.764865 7.723342 -0.056441 0.061373 -0.245722 0.000000 0.000000 0.000000 0.000000 0.000000 0.000000 0.000000 
-2.116284 16.187117 1.317206 159.257995 -85.874695 -137.013873 -9.136108 -0.145971 4.099852 -11.420359 -8.602518 -56.828074 -2.111260 1.525829 33.072414 0.491635 0.733767 -5.409631 0.226300 0.000000 -20.012399 10.675467 -1.602253 -1.122193 7.782803 -4.160246 -32.278218 -0.808332 -4.058206 65.221788 -0.517129 -0.583646 -3.752081 -0.052100 0.000000 -81.595800 -3.411811 -0.931848 -2.719413 -1.622032 -0.858157 -3.646892 -7.021241 -1.017759 0.114934 11.682858 -6.344205 -9.506370 -3.803169 -0.266206 -0.640759 0.000000 0.000000 0.000000 -2.458608 9.379356 3.280020 -72.304056 8.013009 5.413795 -3.307369 -28.013878 -0.010586 -1.491654 9.143657 -0.113754 -0.068297 -0.000807 -0.000000 0.000000 0.000000 0.000000 0.000000 0.000000 0.000000 18.706797 -1.034391 1.294704 73.085747 12.406868 7.720260 2.181870 43.585190 0.007182 -0.627194 7.610151 -0.046070 0.058840 -0.244700 0.000000 0.000000 0.000000 0.000000 0.000000 0.000000 0.000000 
